<svg version="1.1" id="Layer_1" xmlns="http://www.w3.org/2000/svg" xmlns:xlink="http://www.w3.org/1999/xlink" x="0px" y="0px"
	 width="100%" viewBox="0 0 1024 576" enable-background="new 0 0 1024 576" xml:space="preserve">
<path fill="#000000" opacity="1.000000" stroke="none" 
	d="
M608.471069,158.498810 
	C623.936829,165.003464 639.043396,171.371262 654.565857,177.914368 
	C651.788452,181.656281 648.244080,182.030045 645.339233,183.315094 
	C641.608459,184.965454 640.239624,187.235748 640.287903,191.365417 
	C640.511719,210.511200 640.420654,229.660751 640.423401,248.808945 
	C640.423584,250.265121 640.834290,251.803802 639.515015,253.642471 
	C633.362244,251.565964 627.335754,248.952271 621.634521,245.674637 
	C619.493469,244.443756 619.989746,241.844788 619.988953,239.701050 
	C619.984192,227.373474 620.029053,215.045807 619.987488,202.718399 
	C619.979797,200.439362 620.357788,198.051147 618.851257,195.672302 
	C614.626770,195.700348 611.069946,197.982956 607.341858,199.587891 
	C577.677307,212.358566 548.034851,225.180908 518.399597,238.019424 
	C516.005005,239.056808 513.851685,239.397186 511.254486,238.265594 
	C492.787292,230.219666 474.241547,222.354279 455.740479,214.385727 
	C430.205414,203.387558 404.686676,192.351486 379.165222,181.321747 
	C377.824921,180.742493 376.340729,180.341660 375.051697,178.384125 
	C379.187653,175.395416 383.901672,173.888763 388.361633,172.012451 
	C418.282837,159.424637 448.232056,146.903091 478.198181,134.422592 
	C489.257141,129.816666 500.401062,125.414932 511.471954,120.837196 
	C513.807190,119.871613 515.882812,120.017242 518.181152,120.979897 
	C545.055481,132.236160 571.954834,143.432648 598.852356,154.633316 
	C601.923828,155.912323 605.024719,157.120773 608.471069,158.498810 
z"/>
<path fill="#000000" opacity="1.000000" stroke="none" 
	d="
M442.643311,270.387695 
	C435.286560,267.926392 432.978943,263.321747 433.514893,255.849686 
	C434.251648,245.577652 433.656097,235.211548 433.685608,224.885910 
	C433.690674,223.113007 433.209808,221.201935 434.982941,219.213333 
	C439.824768,220.088547 444.355499,222.588531 449.007446,224.551682 
	C469.846008,233.345779 490.617554,242.299637 511.369965,251.295776 
	C514.036194,252.451599 516.439087,252.480438 519.029724,251.343781 
	C538.519409,242.792480 557.998718,234.216843 577.532837,225.767990 
	C582.961975,223.419815 588.564331,221.472198 593.885620,219.418625 
	C595.885986,221.318176 595.263794,223.263184 595.274780,224.996170 
	C595.349548,236.819962 595.193726,248.647095 595.427490,260.466919 
	C595.503418,264.303741 594.264832,266.450073 590.811768,268.270416 
	C566.521057,281.075928 542.328491,294.068329 518.155029,307.094513 
	C515.671692,308.432678 513.710449,308.425049 511.206390,307.074310 
	C488.502228,294.827820 465.728760,282.709808 442.643311,270.387695 
z"/>
<path fill="#000000" opacity="1.000000" stroke="none" 
	d="
M597.011230,346.922180 
	C597.018372,353.326965 596.896057,359.318939 597.094421,365.300293 
	C597.195862,368.359955 596.080750,370.284302 593.444702,371.743683 
	C568.247864,385.692596 543.071960,399.679352 517.927856,413.723175 
	C515.620667,415.011810 513.776855,414.928741 511.458069,413.636108 
	C486.593903,399.775635 461.682922,385.998901 436.743622,372.273895 
	C433.993317,370.760315 432.540833,368.979462 432.632111,365.621368 
	C432.847565,357.694885 432.701202,349.758606 432.701202,341.689911 
	C436.763763,341.108948 439.090393,343.614929 441.720764,345.084656 
	C464.389618,357.750671 487.059631,370.416809 509.597046,383.314026 
	C513.635498,385.625031 516.827820,385.305756 520.643433,383.082001 
	C537.458374,373.282318 554.352112,363.616547 571.281433,354.015350 
	C579.192566,349.528717 587.249329,345.298981 594.955994,341.107300 
	C597.422668,342.770569 596.907654,344.729950 597.011230,346.922180 
z"/>
<path fill="#000000" opacity="1.000000" stroke="none" 
	d="
M516.788391,331.434509 
	C536.104370,320.604065 555.135681,309.970947 574.094421,299.209869 
	C577.201477,297.446320 579.826233,297.432007 582.928528,299.235077 
	C588.393738,302.411407 594.085388,305.195557 599.646423,308.210144 
	C604.686646,310.942474 604.754761,312.138611 599.616638,315.007446 
	C578.544495,326.773041 557.406860,338.421265 536.303650,350.131226 
	C530.481506,353.361877 524.598206,356.499420 518.931946,359.986725 
	C515.994446,361.794647 513.605347,361.754059 510.642731,360.084412 
	C487.291626,346.924713 463.856659,333.913910 440.485809,320.788971 
	C435.616577,318.054413 430.229431,316.128876 426.155212,312.317627 
	C426.307709,309.918182 428.058502,309.355682 429.440613,308.583740 
	C434.961975,305.500000 440.646210,302.691437 446.045105,299.410645 
	C449.641266,297.225372 452.659302,297.420715 456.235565,299.472015 
	C474.429413,309.908112 492.730255,320.157593 510.981445,330.493927 
	C512.717590,331.477142 514.319214,332.857574 516.788391,331.434509 
z"/>
<path fill="#000000" opacity="1.000000" stroke="none" 
	d="
M539.218140,426.185730 
	C557.692139,416.089081 575.850586,406.182922 595.060425,395.703156 
	C595.060425,405.446686 595.148193,413.681000 595.004639,421.911255 
	C594.963745,424.255035 592.615112,424.983429 590.918518,425.912048 
	C574.125366,435.103516 557.299377,444.235138 540.483093,453.384460 
	C533.171265,457.362671 525.815369,461.263062 518.572205,465.362579 
	C515.801270,466.930878 513.524475,466.830383 510.700623,465.277893 
	C486.628784,452.043732 462.494720,438.922119 438.318878,425.878754 
	C435.157349,424.173035 433.637451,422.069000 433.807739,418.388580 
	C434.069214,412.737549 433.911316,407.068237 434.000244,401.407776 
	C434.076569,396.553009 435.184021,395.880035 439.258606,398.118439 
	C463.037018,411.181549 486.841492,424.197937 510.550201,437.386536 
	C513.524719,439.041199 515.780212,439.243927 518.781006,437.457245 
	C525.356384,433.542236 532.180176,430.044403 539.218140,426.185730 
z"/>
<path fill="#000000" opacity="1.000000" stroke="none" 
	d="
M394.999207,403.030487 
	C389.831787,401.335510 388.278717,398.242615 388.532257,393.062256 
	C389.003448,383.434814 388.897980,373.764526 388.028839,364.123840 
	C387.269806,355.704559 385.635254,353.447235 377.602112,351.267883 
	C375.678436,350.745972 374.725586,349.819397 374.659729,347.878235 
	C374.558289,344.889282 374.536163,341.892792 374.295044,338.914490 
	C373.860504,333.546783 374.271515,329.446136 381.372437,328.729462 
	C385.427460,328.320190 387.058533,324.041351 387.723328,320.027100 
	C389.532196,309.104523 388.532867,298.092590 388.628754,287.125854 
	C388.664185,283.080078 389.846497,280.676453 393.502258,278.900787 
	C398.582672,276.433105 403.416321,273.457367 408.355804,270.699493 
	C409.990417,269.786835 411.733887,268.921967 413.559387,269.852020 
	C421.225220,273.757660 428.841919,277.759735 436.187317,281.576202 
	C436.158936,284.743958 434.068939,285.070465 432.561310,285.923676 
	C427.636047,288.710999 422.724304,291.526184 417.731781,294.189087 
	C414.799347,295.753113 413.461365,297.808594 413.425629,301.322083 
	C413.359711,307.800293 412.810059,314.283203 412.233459,320.743805 
	C411.674194,327.010498 409.693756,332.773560 405.253784,337.467804 
	C403.823792,338.979736 402.342926,340.697266 404.297058,342.630005 
	C412.468414,350.712006 412.093506,361.291016 412.944122,371.523895 
	C413.095703,373.347687 413.222290,375.179291 413.233154,377.008026 
	C413.267548,382.783691 415.075836,387.297577 421.097778,389.339844 
	C424.146027,390.373596 425.167542,392.859528 425.107574,396.068695 
	C424.974579,403.189850 425.066162,410.315155 425.066162,418.491486 
	C413.841034,414.477631 404.855377,408.284485 394.999207,403.030487 
z"/>
<path fill="#000000" opacity="1.000000" stroke="none" 
	d="
M618.458252,327.152588 
	C616.058533,318.464081 616.935303,309.879883 616.119690,301.447845 
	C615.773193,297.866333 614.409302,295.614655 611.311646,293.987915 
	C606.596619,291.511688 601.987793,288.832153 597.350220,286.210144 
	C595.808777,285.338654 593.910278,284.842285 593.035095,281.947296 
	C598.878174,278.779785 604.992004,275.874237 610.662720,272.271393 
	C615.872620,268.961273 619.917786,270.303986 625.294861,272.543152 
	C637.242188,277.518463 642.964722,284.713135 640.629761,298.193726 
	C639.547302,304.443298 640.890808,311.130157 641.268127,317.610962 
	C641.700989,325.045197 644.122437,328.040222 651.403931,329.681000 
	C654.152222,330.300201 654.943787,331.828613 654.911133,334.236908 
	C654.848083,338.892792 654.728516,343.547882 654.644104,348.203522 
	C654.605957,350.310638 653.332336,350.889435 651.458069,351.258728 
	C644.484558,352.632721 641.566223,355.921906 641.341980,363.246490 
	C641.015991,373.894501 639.934143,384.525818 640.473450,395.194397 
	C640.597534,397.648529 640.427917,399.827271 637.925171,401.171814 
	C627.810364,406.605682 617.723938,412.092377 607.609192,417.526367 
	C607.072754,417.814545 606.372864,417.798676 604.346313,418.206940 
	C604.346313,412.390015 604.334595,407.019287 604.358643,401.648743 
	C604.362366,400.821686 604.750549,399.949036 604.587830,399.175995 
	C603.198181,392.575562 606.276062,388.850586 612.234863,386.733765 
	C614.852722,385.803802 615.857239,383.758667 615.982788,380.895599 
	C616.303101,373.590118 617.037598,366.303467 617.399292,358.998993 
	C617.696045,353.005920 620.348389,348.101410 624.153809,343.785034 
	C626.201843,341.462006 626.436096,339.769867 624.164734,337.465363 
	C621.449463,334.710480 619.682312,331.280334 618.458252,327.152588 
z"/>
</svg>